<?xml version="1.0" encoding="UTF-8"?>
<svg xmlns="http://www.w3.org/2000/svg" width="1200" height="800" viewBox="0 0 1200 800" preserveAspectRatio="xMidYMid meet">
  <defs>
    <linearGradient id="g1" x1="0" x2="1">
      <stop offset="0%" stop-color="#cfeadf" />
      <stop offset="100%" stop-color="#79c5a3" />
    </linearGradient>
  </defs>
  <rect width="100%" height="100%" fill="#f0fbf6" />
  <!-- Simulated administrative boundary shape -->
  <path d="M80,320 C160,240 240,220 320,240 C360,250 410,280 460,270 C520,260 590,210 650,240 C710,270 760,360 820,380 C880,400 930,420 990,410 C1040,405 1110,420 1110,420 L1090,480 C1080,500 1020,520 980,520 C940,520 900,530 860,520 C820,510 760,540 720,520 C680,500 620,510 580,480 C540,450 480,430 420,450 C360,470 300,470 260,460 C220,450 140,400 80,320 Z"
        fill="url(#g1)" stroke="#2e7d5a" stroke-width="6" opacity="0.98" />
  <!-- Rivers or water bodies -->
  <path d="M200,560 C260,520 320,520 380,540 C440,560 500,520 560,500" stroke="#4fb5b9" stroke-width="8" fill="none" stroke-linecap="round" stroke-linejoin="round" opacity="0.9" />
  <!-- Label -->
  <g font-family="Merriweather, serif" font-size="28" fill="#093220">
    <text x="80" y="70">Kecamatan Kedung Banteng</text>
    <text x="80" y="100" font-size="18" fill="#164a3b">Kabupaten Banyumas - Jawa Tengah</text>
  </g>
  <!-- Legend miniature -->
  <g transform="translate(880,600)">
    <rect x="0" y="0" width="240" height="120" fill="#ffffff" opacity="0.95" stroke="#dfeee6" rx="8"/>
    <g transform="translate(12,12)" font-family="Merriweather, serif" font-size="14" fill="#093220">
      <rect x="0" y="0" width="16" height="10" fill="#79c5a3" stroke="#2e7d5a" />
      <text x="26" y="9">Area Hijau / Taman</text>
      <rect x="0" y="26" width="16" height="10" fill="#4fb5b9" stroke="#3a9ea7" />
      <text x="26" y="35">Perairan</text>
      <rect x="0" y="52" width="16" height="10" fill="#d0c59f" stroke="#a8996e" />
      <text x="26" y="61">Permukiman</text>
    </g>
  </g>
</svg>
